<svg xmlns="http://www.w3.org/2000/svg" viewBox="0 0 63 63" fill="white" stroke="black" stroke-width="0.1" width="1080" height="1080">
	<rect fill="#555" x="0" y="0" width="63" height="63" stroke-width="0" />

	<g>
		<rect x="0" y="0" width="21" height="21" fill="#e94738" />


		<rect x="42" y="0" width="21" height="21" fill="#1e91fe" />

		<rect x="0" y="42" width="21" height="21" fill="#23ca58" />
		<rect x="42" y="42" width="21" height="21" fill="#fac51d" />

		<g fill="#000000" fill-opacity="0.3" stroke-width="0">
			<rect x="2" y="2" width="17" height="17" ry="3" />
			<circle cx="7" cy="7" r="2" />
			<circle cx="7" cy="14" r="2" />
			<circle cx="14" cy="7" r="2" />
			<circle cx="14" cy="14" r="2" />

			<rect x="2" y="44" width="17" height="17" ry="3" />
			<circle cx="49" cy="7" r="2" />
			<circle cx="49" cy="14" r="2" />
			<circle cx="56" cy="7" r="2" />
			<circle cx="56" cy="14" r="2" />

			<rect x="44" y="2" width="17" height="17" ry="3" />
			<circle cx="7" cy="49" r="2" />
			<circle cx="14" cy="49" r="2" />
			<circle cx="7" cy="56" r="2" />
			<circle cx="14" cy="56" r="2" />

			<rect x="44" y="44" width="17" height="17" ry="3" />
			<circle cx="49" cy="49" r="2" />
			<circle cx="49" cy="56" r="2" />
			<circle cx="56" cy="49" r="2" />
			<circle cx="56" cy="56" r="2" />
		</g>
	</g>

	<g fill="#e94738">
		<rect width="7" height="3" x="28" y="03" />
		<rect width="7" height="3" x="28" y="06" />
		<rect width="7" height="3" x="28" y="09" />
		<rect width="7" height="3" x="28" y="12" />
		<rect width="7" height="3" x="28" y="15" />
		<rect width="7" height="3" x="28" y="18" />
		<rect width="7" height="3" x="28" y="21" />

		<polygon points="24,24 31.5,31.5 39,24" />
	</g>
	<g fill="#23ca58">
		<rect width="3" height="7" x="03" y="28" />
		<rect width="3" height="7" x="06" y="28" />
		<rect width="3" height="7" x="09" y="28" />
		<rect width="3" height="7" x="12" y="28" />
		<rect width="3" height="7" x="15" y="28" />
		<rect width="3" height="7" x="18" y="28" />
		<rect width="3" height="7" x="21" y="28" />

		<polygon points="24,24 31.5,31.5 24,39" />
	</g>
	<g fill="#fac51d">
		<rect width="7" height="3" x="28" y="39" />
		<rect width="7" height="3" x="28" y="42" />
		<rect width="7" height="3" x="28" y="45" />
		<rect width="7" height="3" x="28" y="48" />
		<rect width="7" height="3" x="28" y="51" />
		<rect width="7" height="3" x="28" y="54" />
		<rect width="7" height="3" x="28" y="57" />

		<polygon points="39,39 31.5,31.5 24,39" />
	</g>
	<g fill="#1e91fe">
		<rect width="3" height="7" x="39" y="28" />
		<rect width="3" height="7" x="42" y="28" />
		<rect width="3" height="7" x="45" y="28" />
		<rect width="3" height="7" x="48" y="28" />
		<rect width="3" height="7" x="51" y="28" />
		<rect width="3" height="7" x="54" y="28" />
		<rect width="3" height="7" x="57" y="28" />

		<polygon points="39,24 31.5,31.5 39,39" />
	</g>

	<g fill="white">
		<g>
			<g>
				<polygon points="35,39 39,39 42,42 35,42 " />
				<rect width="7" height="3" x="35" y="42" />
				<rect width="7" height="3" x="35" y="45" />
				<rect width="7" height="3" x="35" y="48" fill="#fac51d" />
				<rect width="7" height="3" x="35" y="51" />
				<rect width="7" height="3" x="35" y="54" />
				<rect width="7" height="3" x="35" y="57" />
				<rect width="7" height="3" x="35" y="60" />
				<rect width="7" height="3" x="28" y="60" fill="#999999" />
			</g>
			<g>
				<polygon points="39,35 39,39 42,42 42,35" />
				<rect width="3" height="7" x="42" y="35" />
				<rect width="3" height="7" x="45" y="35" />
				<rect width="3" height="7" x="48" y="35" fill="#999999" />
				<rect width="3" height="7" x="51" y="35" />
				<rect width="3" height="7" x="54" y="35" />
				<rect width="3" height="7" x="57" y="35" />
				<rect width="3" height="7" x="60" y="35" />
				<rect width="3" height="7" x="60" y="28" fill="#999999" />
			</g>
		</g>
		<g>
			<g>
				<rect width="3" height="7" x="00" y="28" fill="#999999" />
				<rect width="3" height="7" x="00" y="35" />
				<rect width="3" height="7" x="03" y="35" />
				<rect width="3" height="7" x="06" y="35" />
				<rect width="3" height="7" x="09" y="35" />
				<rect width="3" height="7" x="12" y="35" fill="#23ca58" />
				<rect width="3" height="7" x="15" y="35" />
				<rect width="3" height="7" x="18" y="35" />
				<polygon points="21,35 24,35 24,39 21,42" />
			</g>
			<g>
				<rect width="7" height="3" x="21" y="42" />
				<rect width="7" height="3" x="21" y="45" />
				<rect width="7" height="3" x="21" y="48" fill="#999999" />
				<rect width="7" height="3" x="21" y="51" />
				<rect width="7" height="3" x="21" y="54" />
				<rect width="7" height="3" x="21" y="57" />
				<rect width="7" height="3" x="21" y="60" />
				<polygon points="28,42 28,39 24,39 21,42" />
			</g>
		</g>
		<g>
			<g>
				<rect width="7" height="3" x="35" y="00" />
				<rect width="7" height="3" x="35" y="03" />
				<rect width="7" height="3" x="35" y="06" />
				<rect width="7" height="3" x="35" y="09" />
				<rect width="7" height="3" x="35" y="12" fill="#999999" />
				<rect width="7" height="3" x="35" y="15" />
				<rect width="7" height="3" x="35" y="18" />
				<polygon points="39,24 39,28 42,28 42,21" />
			</g>
			<g>
				<rect width="3" height="7" x="42" y="21" />
				<rect width="3" height="7" x="45" y="21" />
				<rect width="3" height="7" x="48" y="21" fill="#1e91fe" />
				<rect width="3" height="7" x="51" y="21" />
				<rect width="3" height="7" x="54" y="21" />
				<rect width="3" height="7" x="57" y="21" />
				<rect width="3" height="7" x="60" y="21" />
				<polygon points="39,24 35,24 35,21 42,21" />
			</g>
		</g>
		<g>
			<g>
				<rect width="7" height="3" x="28" y="00" fill="#999999" />
				<rect width="7" height="3" x="21" y="00" />
				<rect width="7" height="3" x="21" y="03" />
				<rect width="7" height="3" x="21" y="06" />
				<rect width="7" height="3" x="21" y="09" />
				<rect width="7" height="3" x="21" y="12" fill="#e94738" />
				<rect width="7" height="3" x="21" y="15" />
				<rect width="7" height="3" x="21" y="18" />
				<polygon points="21,21 28,21 28,24 24,24 " />
			</g>
			<g>
				<rect width="3" height="7" x="00" y="21" />
				<rect width="3" height="7" x="03" y="21" />
				<rect width="3" height="7" x="06" y="21" />
				<rect width="3" height="7" x="09" y="21" />
				<rect width="3" height="7" x="12" y="21" fill="#999999" />
				<rect width="3" height="7" x="15" y="21" />
				<rect width="3" height="7" x="18" y="21" />
				<polygon points="21,21 21,28 24,28 24,24 " />
			</g>
		</g>
	</g>

	<g stroke="none" fill="black" font-size="2" text-anchor="end" font-family="'Arial', 'Comic Sans MS'">
		<g>
			<g>
				<text x="36.25" y="62.75">1</text>
				<text x="36.25" y="59.75">2</text>
				<text x="36.25" y="56.75">3</text>
				<text x="36.25" y="53.75">4</text>
				<text x="36.25" y="50.75">5</text>
				<text x="36.25" y="47.75">6</text>
				<text x="36.25" y="44.75">7</text>
				<text x="36.25" y="41.75">8</text>
			</g>
			<g transform="rotate(270, 31.5, 31.5)">
				<text x="27.75" y="41.75">9</text>
				<text x="27.75" y="44.75">10</text>
				<text x="27.75" y="47.75">11</text>
				<text x="27.75" y="50.75">12</text>
				<text x="27.75" y="53.75">13</text>
				<text x="27.75" y="56.75">14</text>
				<text x="27.75" y="59.75">15</text>
				<text x="27.75" y="62.75">16</text>
			</g>
			<g transform="rotate(270, 31.5, 31.5)">
				<text x="30.5" y="62.75">17</text>
			</g>
		</g>
		<g>
			<g transform="rotate(270, 31.5, 31.5)">
				<text x="37.25" y="62.75">18</text>
				<text x="37.25" y="59.75">19</text>
				<text x="37.25" y="56.75">20</text>
				<text x="37.25" y="53.75">21</text>
				<text x="37.25" y="50.75">22</text>
				<text x="37.25" y="47.75">23</text>
				<text x="37.25" y="44.75">24</text>
				<text x="37.25" y="41.75">25</text>
			</g>
			<g transform="rotate(180, 31.5 31.5)">
				<text x="27.75" y="41.75">26</text>
				<text x="27.75" y="44.75">27</text>
				<text x="27.75" y="47.75">28</text>
				<text x="27.75" y="50.75">29</text>
				<text x="27.75" y="53.75">30</text>
				<text x="27.75" y="56.75">31</text>
				<text x="27.75" y="59.75">32</text>
				<text x="27.75" y="62.75">33</text>
			</g>
			<g transform="rotate(180, 31.5 31.5)">
				<text x="30.25" y="62.75">34</text>
			</g>
		</g>
		<g>
			<g transform="rotate(180, 31.5, 31.5)">
				<text x="37.25" y="62.75">35</text>
				<text x="37.25" y="59.75">36</text>
				<text x="37.25" y="56.75">37</text>
				<text x="37.25" y="53.75">38</text>
				<text x="37.25" y="50.75">39</text>
				<text x="37.25" y="47.75">40</text>
				<text x="37.25" y="44.75">41</text>
				<text x="37.25" y="41.75">42</text>
			</g>
			<g transform="rotate(90, 31.5, 31.5)">
				<text x="27.75" y="41.75">43</text>
				<text x="27.75" y="44.75">44</text>
				<text x="27.75" y="47.75">45</text>
				<text x="27.75" y="50.75">46</text>
				<text x="27.75" y="53.75">47</text>
				<text x="27.75" y="56.75">48</text>
				<text x="27.75" y="59.75">49</text>
				<text x="27.75" y="62.75">50</text>
			</g>
			<g transform="rotate(90, 31.5, 31.5)">
				<text x="30.5" y="62.75">51</text>
			</g>
		</g>
		<g>
			<g transform="rotate(90, 31.5, 31.5)">
				<text x="37.25" y="62.75">52</text>
				<text x="37.25" y="59.75">53</text>
				<text x="37.25" y="56.75">54</text>
				<text x="37.25" y="53.75">55</text>
				<text x="37.25" y="50.75">56</text>
				<text x="37.25" y="47.75">57</text>
				<text x="37.25" y="44.75">58</text>
				<text x="37.25" y="41.75">59</text>
			</g>
			<g transform="rotate(0, 31.5, 31.5)">
				<text x="27.75" y="41.75">60</text>
				<text x="27.75" y="44.75">61</text>
				<text x="27.75" y="47.75">62</text>
				<text x="27.75" y="50.75">63</text>
				<text x="27.75" y="53.75">64</text>
				<text x="27.75" y="56.75">65</text>
				<text x="27.75" y="59.75">66</text>
				<text x="27.75" y="62.75">67</text>
			</g>
			<g transform="rotate(0, 31.5, 31.5)">
				<text x="30.5" y="62.75">68</text>
			</g>
		</g>
	</g>

	<!-- Grid lines -->
	<defs>
		<pattern id="grid" width="1" height="1" patternUnits="userSpaceOnUse">
			<rect width="1" height="1" fill="none" stroke="black" stroke-width="0.05" />
		</pattern>
	</defs>

	<!-- Apply the pattern -->
	<!-- <rect width="63" height="63" fill="url(#grid)" /> -->
</svg>